<svg width="115" height="115" viewBox="0 0 115 115" fill="none" xmlns="http://www.w3.org/2000/svg">
<path d="M108.388 13.6562L108.981 17.0523C109.045 17.3892 109.011 17.7374 108.884 18.0557C108.756 18.3741 108.541 18.6495 108.262 18.8492C108 19.0264 107.696 19.1314 107.38 19.1535C107.065 19.1755 106.749 19.114 106.465 18.9749L103.41 17.3757L100.356 18.9749C100.103 19.1172 99.8185 19.1915 99.529 19.1906C99.1483 19.1919 98.7771 19.0724 98.4688 18.8492C98.19 18.6495 97.9742 18.3741 97.8469 18.0557C97.7195 17.7374 97.6859 17.3892 97.7501 17.0523L98.2532 13.6562L95.7735 11.2484C95.5309 11.014 95.3592 10.716 95.278 10.3886C95.1968 10.0612 95.2095 9.71753 95.3145 9.39695C95.4194 9.07637 95.6125 8.79182 95.8717 8.57585C96.1308 8.35988 96.4455 8.22122 96.7797 8.17572L100.176 7.69056L101.703 4.59994C101.85 4.29614 102.08 4.03993 102.366 3.86066C102.652 3.68139 102.983 3.5863 103.32 3.5863C103.658 3.5863 103.989 3.68139 104.275 3.86066C104.561 4.03993 104.79 4.29614 104.938 4.59994L106.465 7.69056L109.861 8.17572C110.195 8.22122 110.51 8.35988 110.769 8.57585C111.028 8.79182 111.221 9.07637 111.326 9.39695C111.431 9.71753 111.444 10.0612 111.363 10.3886C111.282 10.716 111.11 11.014 110.867 11.2484L108.388 13.6562ZM62.8907 22.4609C62.9962 22.1473 63.1863 21.869 63.44 21.6566C63.6936 21.4441 64.001 21.3059 64.3282 21.257L69.593 20.4484L71.9469 15.4171C72.0899 15.1034 72.32 14.8374 72.61 14.6509C72.8999 14.4644 73.2374 14.3652 73.5821 14.3652C73.9268 14.3652 74.2643 14.4644 74.5542 14.6509C74.8442 14.8374 75.0743 15.1034 75.2172 15.4171L77.5712 20.4484L82.836 21.257C83.1632 21.3059 83.4706 21.4441 83.7242 21.6566C83.9779 21.869 84.1679 22.1473 84.2735 22.4609C84.3734 22.7698 84.3877 23.1 84.3149 23.4164C84.2421 23.7327 84.085 24.0235 83.8602 24.2578L79.9969 28.2109L80.9133 33.8171C80.9534 34.1447 80.9024 34.477 80.7661 34.7775C80.6297 35.078 80.4133 35.3352 80.1404 35.5208C79.8676 35.7064 79.5489 35.8133 79.2193 35.8297C78.8897 35.8462 78.5619 35.7715 78.2719 35.614L73.6719 33.1163L68.9821 35.7218C68.7172 35.8648 68.4206 35.9389 68.1196 35.9374C67.7471 35.9403 67.3829 35.8272 67.0774 35.614C66.7954 35.4165 66.576 35.1422 66.4454 34.8237C66.3148 34.5051 66.2784 34.1557 66.3407 33.8171L67.2571 28.2109L63.3938 24.2578C63.1535 24.033 62.9794 23.7466 62.8907 23.4297C62.802 23.1129 62.802 22.7777 62.8907 22.4609Z" fill="black"/>
<path d="M3.59375 73.6719H10.7812V77.2656H3.59375V73.6719Z" fill="black"/>
<path d="M88.0469 61.0938H62.0461L80.0148 72.1445C80.357 72.3408 80.625 72.6442 80.7777 73.0079C80.9303 73.3716 80.959 73.7754 80.8594 74.157C80.7507 74.5457 80.5143 74.8865 80.1883 75.1244C79.8624 75.3624 79.4658 75.4837 79.0625 75.4688H62.8906V71.875H72.7195L54.7508 60.8242C54.4086 60.628 54.1406 60.3246 53.988 59.9609C53.8353 59.5972 53.8066 59.1934 53.9062 58.8117C54.0149 58.4231 54.2513 58.0823 54.5773 57.8443C54.9032 57.6064 55.2998 57.4851 55.7031 57.5H88.0469V61.0938Z" fill="black"/>
<path d="M91.6406 57.5H95.2344V61.0938H91.6406V57.5Z" fill="black"/>
<path d="M10.7811 100.625H22.9819V104.219H10.7811V100.625Z" fill="black"/>
<path d="M29.6843 15.6149C33.7178 12.1871 38.25 9.39383 43.1249 7.33131C43.4789 7.17646 43.8733 7.13981 44.2498 7.22682C44.6262 7.31383 44.9646 7.51986 45.2147 7.81434C45.4648 8.10883 45.6133 8.47608 45.6382 8.86164C45.6632 9.2472 45.5632 9.63052 45.353 9.95475C39.6734 18.8841 36.9875 29.3912 37.6855 39.9507C38.3834 50.5103 42.4288 60.5725 49.2343 68.6766C56.222 77.275 65.9423 83.2226 76.779 85.5305C87.6157 87.8384 98.9158 86.3676 108.801 81.3626C109.142 81.1879 109.53 81.1268 109.908 81.1882C110.286 81.2496 110.635 81.4303 110.903 81.704C111.172 81.9799 111.345 82.3349 111.397 82.7167C111.449 83.0984 111.376 83.4867 111.191 83.8243C108.038 89.5762 103.846 94.6938 98.828 98.918C89.3644 107.029 77.3131 111.49 64.8491 111.496C63.3038 111.496 61.7405 111.496 60.1593 111.298C53.0562 110.659 46.1522 108.608 39.8517 105.267C33.5512 101.925 27.9809 97.3599 23.4671 91.8383C14.2989 80.8568 9.81274 66.7125 10.9757 52.4542C12.1387 38.1959 18.8576 24.9656 29.6843 15.6149V15.6149Z" fill="black"/>
</svg>
