<svg width="123" height="123" viewBox="0 0 123 123" fill="none" xmlns="http://www.w3.org/2000/svg">
<g filter="url(#filter0_d_32_2)">
<path d="M55.1113 6.38885C55.1113 6.38885 55.1113 -4.05312e-05 61.5002 -4.05312e-05C67.8891 -4.05312e-05 67.8891 6.38885 67.8891 6.38885V12.7777C67.8891 12.7777 67.8891 19.1666 61.5002 19.1666C55.1113 19.1666 55.1113 12.7777 55.1113 12.7777V6.38885Z" fill="#FFF50D"/>
<path d="M112.611 51.1111C112.611 51.1111 119 51.1111 119 57.5C119 63.8889 112.611 63.8889 112.611 63.8889H106.222C106.222 63.8889 99.833 63.8889 99.833 57.5C99.833 51.1111 106.222 51.1111 106.222 51.1111H112.611Z" fill="#FFF50D"/>
<path d="M16.7778 51.1111C16.7778 51.1111 23.1667 51.1111 23.1667 57.5C23.1667 63.8889 16.7778 63.8889 16.7778 63.8889H10.3889C10.3889 63.8889 4 63.8889 4 57.5C4 51.1111 10.3889 51.1111 10.3889 51.1111H16.7778Z" fill="#FFF50D"/>
<path d="M33.1363 23.3003C33.1363 23.3003 37.6532 27.8172 33.1363 32.3341C28.6193 36.8511 24.1024 32.3341 24.1024 32.3341L19.5822 27.8172C19.5822 27.8172 15.0653 23.3003 19.5822 18.7801C24.1024 14.2632 28.6193 18.7801 28.6193 18.7801L33.1363 23.3003Z" fill="#FFF50D"/>
<path d="M100.22 90.3805C100.22 90.3805 104.737 94.8974 100.22 99.4143C95.7028 103.931 91.1859 99.4143 91.1859 99.4143L86.6689 94.8974C86.6689 94.8974 82.152 90.3805 86.6689 85.8635C91.1859 81.3466 95.7028 85.8635 95.7028 85.8635L100.22 90.3805Z" fill="#FFF50D"/>
<path d="M98.9008 32.331C98.9008 32.331 94.3839 36.8479 89.8669 32.331C85.35 27.814 89.8669 23.2971 89.8669 23.2971L94.3839 18.7801C94.3839 18.7801 98.9008 14.2632 103.418 18.7801C107.935 23.2971 103.418 27.814 103.418 27.814L98.9008 32.331Z" fill="#FFF50D"/>
<path d="M31.8168 99.4143C31.8168 99.4143 27.2999 103.931 22.7829 99.4143C18.266 94.8974 22.7829 90.3805 22.7829 90.3805L27.2999 85.8635C27.2999 85.8635 31.8168 81.3466 36.3338 85.8635C40.8507 90.3805 36.3338 94.8974 36.3338 94.8974L31.8168 99.4143Z" fill="#FFF50D"/>
<path d="M55.1111 102.222C55.1111 102.222 55.1111 95.8333 61.5 95.8333C67.8889 95.8333 67.8889 102.222 67.8889 102.222V108.611C67.8889 108.611 67.8889 115 61.5 115C55.1111 115 55.1111 108.611 55.1111 108.611V102.222Z" fill="#FFF50D"/>
<path d="M93.4446 57.5C93.4446 39.8571 79.1398 25.5556 61.5001 25.5556C43.8572 25.5556 29.5557 39.8571 29.5557 57.5C29.5557 75.1397 43.8572 89.4445 61.5001 89.4445C79.1398 89.4445 93.4446 75.1397 93.4446 57.5Z" fill="#FFF50D"/>
</g>
<defs>
<filter id="filter0_d_32_2" x="0" y="0" width="123" height="123" filterUnits="userSpaceOnUse" color-interpolation-filters="sRGB">
<feFlood flood-opacity="0" result="BackgroundImageFix"/>
<feColorMatrix in="SourceAlpha" type="matrix" values="0 0 0 0 0 0 0 0 0 0 0 0 0 0 0 0 0 0 127 0" result="hardAlpha"/>
<feOffset dy="4"/>
<feGaussianBlur stdDeviation="2"/>
<feComposite in2="hardAlpha" operator="out"/>
<feColorMatrix type="matrix" values="0 0 0 0 0 0 0 0 0 0 0 0 0 0 0 0 0 0 0.25 0"/>
<feBlend mode="normal" in2="BackgroundImageFix" result="effect1_dropShadow_32_2"/>
<feBlend mode="normal" in="SourceGraphic" in2="effect1_dropShadow_32_2" result="shape"/>
</filter>
</defs>
</svg>
